<svg width="1860" height="1380" viewBox="0 0 1860 1380" fill="none" xmlns="http://www.w3.org/2000/svg">
<rect width="1860" height="1380" fill="white"/>
<path d="M932 179.477C752.771 179.477 607.477 324.771 607.477 504C607.477 683.229 752.771 828.523 932 828.523V902C712.191 902 534 723.809 534 504C534 284.191 712.191 106 932 106V179.477Z" fill="#FF9900"/>
<path d="M928 828.523C1107.23 828.523 1252.52 683.229 1252.52 504C1252.52 324.771 1107.23 179.477 928 179.477V106C1147.81 106 1326 284.191 1326 504C1326 723.809 1147.81 902 928 902V828.523Z" fill="#006994"/>
<path d="M573 680C725.149 940.985 790.851 1013.01 943 1274V844.874C717.03 852.748 638.745 742.991 573 680Z" fill="#FF9900"/>
<path d="M1286.83 680.108L941.629 1273.8L928.164 836.044C1155.49 840.729 1230.51 748.977 1286.82 680.117L1286.83 680.108Z" fill="#006994"/>
</svg>
